<svg
  viewBox="0,0 1,1"
  style="width: 0; height: 0"
  xmlns="http://www.w3.org/2000/svg"
  xmlnsXlink="http://www.w3.org/1999/xlink"
>
  <defs>
    <svg id="me" viewBox="0 0 233.07 245.35">
      <path d="M79.33,133l-5,22.23S16.91,166.56,9.15,185.76.05,244.88.05,244.88L116.58,244V180.88" fill="#eec3a2"/><polyline points="116.53 181.35 116.53 133.35 79.53 133.35" fill="#d19d7e"/><polyline points="116.53 181.35 116.53 244.35 166.53 244.73" fill="#eec3a2"/><path d="M166.34,244.42l66.09.5s-1.34-39.76-9.07-58.89-64.93-30.46-64.93-30.46l-5-22.15H116.34v48" fill="#d19d7e"/><path d="M116.53,181.1v-10s-15.65-1.2-24.5-4.38-17.74-11-17.74-11S16.87,167,9.11,186.23,0,245.35,0,245.35l116.53-.89Z" fill="#a5a5a5"/><path d="M116.53,181.1v-10s15.66-1.2,24.51-4.38,17.74-11,17.74-11S216.2,167,224,186.23s9.11,59.12,9.11,59.12l-116.54-.89Z" fill="#a5a5a5"/><path d="M116.53,180.61V170.56a49.84,49.84,0,0,1-8.58-.45Z" fill="#969696"/><path d="M232.85,245.25s-1.35-39.92-9.11-59.12a15.6,15.6,0,0,0-2-3.51,21.32,21.32,0,0,0-1.39-1.68,31,31,0,0,0-3.47-3.23c-6.13-5-15.17-9.16-24.3-12.53l-1.45-.53c-20-7.17-32.77-8.78-32.72-8.76s-8.73,7.51-17.58,10.69S116.31,171,116.31,171v10l50.14,63.74Z" fill="#969696"/><path d="M74.33,155.27S16.91,166.64,9.15,185.85.05,245,.05,245l116.42-.13.11-38Z" fill="#333"/><polyline points="74.33 155.18 103.56 163.22 116.58 206.75" fill="#2d2d2d"/><polyline points="76.2 139.02 103.56 163.22 88.83 180.22 70.42 154.77" fill="#494949"/><path d="M158.78,155.27S216.2,166.64,224,185.85,233.07,245,233.07,245l-116.65-.13.11-38Z" fill="#333"/><polyline points="159.22 154.77 130.37 163.22 116.97 206.34" fill="#2d2d2d"/><polyline points="157.72 139.02 130.37 163.22 145.1 180.22 163.51 154.77" fill="#494949"/><ellipse cx="69.03" cy="78.85" rx="5.5" ry="14.5" fill="#eec9a6"/><ellipse cx="166.03" cy="78.85" rx="5.5" ry="14.5" fill="#dfaa89"/><path d="M116.66,146.6h0c27.68,0,38.45-25.07,44.91-36.34l5-49.6-.3,0a49.6,49.6,0,0,0-49.6-49.59" fill="#e4af8d"/><path d="M116.94,11.05A49.61,49.61,0,0,0,67.33,60.66a50.19,50.19,0,0,0,1,10l4,39.65c6.46,11.27,16.94,36.34,44.62,36.34" fill="#eec3a2"/><path d="M116.94,99c-7.13,0-14.74,2.86-17.15,4.72a14.12,14.12,0,0,0-3.71,4.64h20.45" fill="#d37540"/><path d="M69.58,86.81s.46,15.79-1.1,25.06,20.69,40.4,48.05,40.4V117.41a19.92,19.92,0,0,1-9.25-1.25c-7.18-3.12-5.86-7.81-5.86-7.81H95.68S81.3,110,78.94,104.54s-6-17.73-6-17.73" fill="#d37540"/><path d="M116.94,99c7.13,0,14.74,2.86,17.15,4.72a14.12,14.12,0,0,1,3.71,4.64H116.53" fill="#c96331"/><path d="M163.49,86.81s-.46,15.79,1.1,25.06-20.69,40.4-48.06,40.4V117.41a20,20,0,0,0,9.26-1.25c7.18-3.12,5.86-7.81,5.86-7.81h5.74s14.38,1.67,16.74-3.81,6-17.73,6-17.73" fill="#c96331"/><path d="M157.11,12.39c4.54,4,5.95,9.16,6.67,11.82,2.16,7.9,3.16,25.26,1.36,47.9-5.06,16.48-6.06,8.22-6.06,8.22S160.57,35,159,39s-24-7.52-24-7.52,2.43,1.87-18.5.58V.63c3.41.52,25.09,3.91,35.36,8.48A19.56,19.56,0,0,1,157.11,12.39Z" fill="#b26e2b"/><path d="M116.53,32V.63S95.83.92,81.18,9.11C77.8,11,75.38,10.58,79.13.4c0-.1.16-.36.11-.4s-1.86,1.81-3.08,3.78c-2,3.27-1.31,4.44-2.46,5.23-3,2.09-4.38-3.59-6.86-.11-.34.48,1.24,1.45,2.15,2.36,2.25,2.25,5.93,1,7,1.13,0,0-15.12,11.62-8,59.72C73,88.59,74,80.33,74,80.33S72.5,35,74.05,39s24-7.52,24-7.52S95.61,33.33,116.53,32Z" fill="#c68232"/>
    </svg>
    <svg id="google" viewBox="0 0 24 24"><path d="M12.24 10.285V14.4h6.806c-.275 1.765-2.056 5.174-6.806 5.174-4.095 0-7.439-3.389-7.439-7.574s3.345-7.574 7.439-7.574c2.33 0 3.891.989 4.785 1.849l3.254-3.138C18.189 1.186 15.479 0 12.24 0c-6.635 0-12 5.365-12 12s5.365 12 12 12c6.926 0 11.52-4.869 11.52-11.726 0-.788-.085-1.39-.189-1.989H12.24z"/></svg>
    <svg id="salesforce" viewBox="0,0 262,184">
      <path stroke="currentColor" fill="none" strokeWidth="2" d="M109.2,20.9c8.4-8.7,20.1-14.2,33-14.2c17.2,0,32.1,9.6,40.1,23.8c6.9-3.1,14.6-4.8,22.7-4.8 c31,0,56,25.3,56,56.5s-25.1,56.5-56,56.5c-3.8,0-7.5-0.4-11-1.1c-7,12.5-20.4,21-35.8,21c-6.4,0-12.5-1.5-17.9-4.1 c-7.1,16.7-23.7,28.5-43,28.5c-20.1,0-37.3-12.7-43.9-30.6c-2.9,0.6-5.9,0.9-8.9,0.9c-24,0-43.4-19.6-43.4-43.9 c0-16.2,8.7-30.4,21.7-38c-2.7-6.1-4.2-12.9-4.2-20.1C18.5,23.6,41.2,1,69,1C85.4,1,100,8.8,109.2,20.9"/>
      <path fill="currentColor" d="M38.7,95.4l1.1-2.9c0.2-0.5,0.5-0.3,0.7-0.2c0.3,0.2,0.5,0.3,0.9,0.6c3.1,2,6,2,6.9,2 c2.3,0,3.8-1.2,3.8-2.9v-0.1c0-1.8-2.2-2.5-4.8-3.3l-0.6-0.2c-3.5-1-7.3-2.5-7.3-6.9v-0.1c0-4.2,3.4-7.2,8.3-7.2l0.5,0 c2.9,0,5.6,0.8,7.6,2.1c0.2,0.1,0.4,0.3,0.3,0.6c-0.1,0.3-1,2.6-1.1,2.9c-0.2,0.5-0.7,0.2-0.7,0.2c-1.8-1-4.5-1.7-6.8-1.7 c-2.1,0-3.4,1.1-3.4,2.6v0.1c0,1.7,2.3,2.5,4.9,3.3l0.5,0.1c3.5,1.1,7.2,2.6,7.2,6.9v0.1c0,4.6-3.3,7.4-8.6,7.4 c-2.6,0-5.1-0.4-7.8-1.8c-0.5-0.3-1-0.5-1.5-0.9C38.7,95.9,38.5,95.8,38.7,95.4z M116.7,95.4l1.1-2.9c0.2-0.5,0.6-0.3,0.7-0.2 c0.3,0.2,0.5,0.3,0.9,0.6c3.1,2,6,2,6.9,2c2.3,0,3.8-1.2,3.8-2.9v-0.1c0-1.8-2.2-2.5-4.8-3.3l-0.6-0.2c-3.5-1-7.3-2.5-7.3-6.9 v-0.1c0-4.2,3.4-7.2,8.3-7.2l0.5,0c2.9,0,5.6,0.8,7.6,2.1c0.2,0.1,0.4,0.3,0.3,0.6c-0.1,0.3-1,2.6-1.1,2.9 c-0.2,0.5-0.7,0.2-0.7,0.2c-1.8-1-4.5-1.7-6.8-1.7c-2.1,0-3.4,1.1-3.4,2.6v0.1c0,1.7,2.3,2.5,4.9,3.3l0.5,0.1 c3.5,1.1,7.2,2.6,7.2,6.9v0.1c0,4.6-3.3,7.4-8.6,7.4c-2.6,0-5.1-0.4-7.8-1.8c-0.5-0.3-1-0.5-1.5-0.9 C116.8,95.9,116.6,95.8,116.7,95.4z M174.5,81.7c0.4,1.5,0.7,3.1,0.7,4.8s-0.2,3.3-0.7,4.8c-0.4,1.5-1.1,2.8-2,3.9 c-0.9,1.1-2.1,2-3.4,2.6c-1.4,0.6-3,0.9-4.8,0.9c-1.8,0-3.4-0.3-4.8-0.9c-1.4-0.6-2.5-1.5-3.4-2.6c-0.9-1.1-1.6-2.4-2-3.9 c-0.4-1.5-0.7-3.1-0.7-4.8c0-1.7,0.2-3.3,0.7-4.8c0.4-1.5,1.1-2.8,2-3.9c0.9-1.1,2.1-2,3.4-2.6c1.4-0.6,3-1,4.8-1 c1.8,0,3.4,0.3,4.8,1c1.4,0.6,2.5,1.5,3.4,2.6C173.4,78.9,174.1,80.2,174.5,81.7z M170,86.4c0-2.6-0.5-4.6-1.4-6 c-0.9-1.4-2.4-2.1-4.3-2.1c-2,0-3.4,0.7-4.3,2.1c-0.9,1.4-1.4,3.4-1.4,6c0,2.6,0.5,4.6,1.4,6.1c0.9,1.4,2.3,2.1,4.3,2.1 c2,0,3.4-0.7,4.3-2.1C169.6,91.1,170,89,170,86.4z M211.1,93.9l1.1,3c0.1,0.4-0.2,0.5-0.2,0.5c-1.7,0.7-4,1.1-6.3,1.1 c-3.9,0-6.8-1.1-8.8-3.3c-2-2.2-3-5.2-3-8.9c0-1.7,0.2-3.3,0.7-4.8c0.5-1.5,1.2-2.8,2.2-3.9c1-1.1,2.2-2,3.6-2.6 c1.4-0.6,3.1-1,5-1c1.3,0,2.4,0.1,3.3,0.2c1,0.2,2.4,0.5,3,0.8c0.1,0,0.4,0.2,0.3,0.5c-0.4,1.2-0.7,2-1.1,3 c-0.2,0.5-0.5,0.3-0.5,0.3c-1.5-0.5-2.9-0.7-4.7-0.7c-2.2,0-3.9,0.7-4.9,2.2c-1.1,1.4-1.7,3.3-1.7,5.9c0,2.8,0.7,4.8,1.9,6.1 c1.2,1.3,2.9,1.9,5.1,1.9c0.9,0,1.7-0.1,2.4-0.2c0.7-0.1,1.4-0.3,2.1-0.6C210.5,93.6,210.9,93.5,211.1,93.9z M233.8,80.8 c1,3.4,0.5,6.3,0.4,6.5c0,0.4-0.4,0.4-0.4,0.4l-15.1,0c0.1,2.3,0.6,3.9,1.8,5c1.1,1.1,2.8,1.8,5.2,1.8c3.6,0,5.1-0.7,6.2-1.1 c0,0,0.4-0.1,0.6,0.3l1,2.8c0.2,0.5,0,0.6-0.1,0.7c-0.9,0.5-3.2,1.5-7.6,1.5c-2.1,0-4-0.3-5.5-0.9c-1.5-0.6-2.8-1.4-3.8-2.5 c-1-1.1-1.7-2.4-2.2-3.8c-0.5-1.5-0.7-3.1-0.7-4.8c0-1.7,0.2-3.3,0.7-4.8c0.4-1.5,1.1-2.8,2-3.9c0.9-1.1,2.1-2,3.5-2.6 c1.4-0.7,3.1-1,5-1c1.6,0,3.1,0.3,4.3,0.9c0.9,0.4,1.9,1.1,2.9,2.2C232.5,77.9,233.4,79.4,233.8,80.8z M218.8,84h10.7 c-0.1-1.4-0.4-2.6-1-3.6c-0.9-1.4-2.2-2.2-4.2-2.2c-2,0-3.4,0.8-4.3,2.2C219.4,81.3,219.1,82.5,218.8,84z M113.1,80.8 c1,3.4,0.5,6.3,0.5,6.5c0,0.4-0.4,0.4-0.4,0.4l-15.1,0c0.1,2.3,0.6,3.9,1.8,5c1.1,1.1,2.8,1.8,5.2,1.8c3.6,0,5.1-0.7,6.2-1.1 c0,0,0.4-0.1,0.6,0.3l1,2.8c0.2,0.5,0,0.6-0.1,0.7c-0.9,0.5-3.2,1.5-7.6,1.5c-2.1,0-4-0.3-5.5-0.9c-1.5-0.6-2.8-1.4-3.8-2.5 c-1-1.1-1.7-2.4-2.2-3.8c-0.5-1.5-0.7-3.1-0.7-4.8c0-1.7,0.2-3.3,0.7-4.8c0.4-1.5,1.1-2.8,2-3.9c0.9-1.1,2.1-2,3.5-2.6 c1.4-0.7,3.1-1,5-1c1.6,0,3.1,0.3,4.3,0.9c0.9,0.4,1.9,1.1,2.9,2.2C111.8,77.9,112.8,79.4,113.1,80.8z M98.1,84h10.8 c-0.1-1.4-0.4-2.6-1-3.6c-0.9-1.4-2.2-2.2-4.2-2.2c-2,0-3.4,0.8-4.3,2.2C98.7,81.3,98.4,82.5,98.1,84z M71.6,83.2 c0,0,1.2,0.1,2.5,0.3v-0.6c0-2-0.4-3-1.2-3.6c-0.8-0.6-2.1-1-3.7-1c0,0-3.7,0-6.6,1.5c-0.1,0.1-0.2,0.1-0.2,0.1 s-0.4,0.1-0.5-0.2l-1.1-2.9c-0.2-0.4,0.1-0.6,0.1-0.6c1.4-1.1,4.6-1.7,4.6-1.7c1.1-0.2,2.9-0.4,4-0.4c3,0,5.3,0.7,6.9,2.1 c1.6,1.4,2.4,3.6,2.4,6.7l0,13.8c0,0,0,0.4-0.3,0.5c0,0-0.6,0.2-1.1,0.3c-0.5,0.1-2.3,0.5-3.8,0.7c-1.5,0.3-3,0.4-4.6,0.4 c-1.5,0-2.8-0.1-4-0.4c-1.2-0.3-2.2-0.7-3.1-1.3c-0.8-0.6-1.5-1.4-2-2.4c-0.5-0.9-0.7-2.1-0.7-3.4c0-1.3,0.3-2.5,0.8-3.5 c0.5-1,1.3-1.8,2.2-2.5c0.9-0.7,2-1.1,3.1-1.5c1.2-0.3,2.4-0.5,3.7-0.5C70.2,83.2,71,83.2,71.6,83.2z M65.6,93.8 c0,0,1.4,1.1,4.4,0.9c2.2-0.1,4.1-0.5,4.1-0.5v-6.9c0,0-1.9-0.3-4.1-0.3c-3.1,0-4.4,1.1-4.4,1.1c-0.9,0.6-1.3,1.6-1.3,2.9 c0,0.8,0.2,1.5,0.5,2C64.9,93.2,65,93.4,65.6,93.8z M193.1,75.5c-0.1,0.4-0.9,2.5-1.1,3.2c-0.1,0.3-0.3,0.4-0.6,0.4 c0,0-0.9-0.2-1.7-0.2c-0.5,0-1.3,0.1-2,0.3c-0.7,0.2-1.3,0.6-1.9,1.1c-0.6,0.5-1,1.3-1.3,2.2c-0.3,0.9-0.5,2.4-0.5,4v11.2 c0,0.3-0.2,0.5-0.5,0.5h-4c-0.3,0-0.5-0.2-0.5-0.5V75.2c0-0.3,0.2-0.5,0.4-0.5h3.9c0.3,0,0.4,0.2,0.4,0.5V77 c0.6-0.8,1.6-1.5,2.5-1.9c0.9-0.4,2-0.7,3.9-0.6c1,0.1,2.3,0.3,2.5,0.4C193,75,193.2,75.1,193.1,75.5z M156,65.1 c0.1,0,0.4,0.2,0.3,0.5l-1.2,3.2c-0.1,0.2-0.2,0.4-0.7,0.2c-0.1,0-0.3-0.1-0.8-0.2c-0.3-0.1-0.8-0.1-1.2-0.1 c-0.6,0-1.1,0.1-1.6,0.2c-0.5,0.1-0.9,0.4-1.3,0.8c-0.4,0.4-0.8,0.9-1.1,1.6c-0.6,1.6-0.8,3.3-0.8,3.4h4.8 c0.4,0,0.5,0.2,0.5,0.5l-0.6,3.1c-0.1,0.5-0.5,0.4-0.5,0.4h-5L143.6,98c-0.4,2-0.8,3.7-1.3,5.1c-0.5,1.4-1.1,2.4-2,3.4 c-0.8,0.9-1.7,1.6-2.8,1.9c-1,0.4-2.3,0.6-3.7,0.6c-0.7,0-1.4,0-2.2-0.2c-0.6-0.1-0.9-0.2-1.4-0.4c-0.2-0.1-0.3-0.3-0.2-0.6 c0.1-0.3,1-2.7,1.1-3.1c0.2-0.4,0.5-0.2,0.5-0.2c0.3,0.1,0.5,0.2,0.8,0.3c0.4,0.1,0.8,0.1,1.2,0.1c0.7,0,1.3-0.1,1.8-0.3 c0.6-0.2,1-0.6,1.4-1.1c0.4-0.5,0.7-1.2,1.1-2.1c0.3-0.9,0.6-2.2,0.9-3.7l3.4-18.9h-3.3c-0.4,0-0.5-0.2-0.5-0.5l0.6-3.1 c0.1-0.5,0.5-0.4,0.5-0.4h3.4l0.2-1c0.5-3,1.5-5.3,3-6.8c1.5-1.5,3.7-2.3,6.4-2.3c0.8,0,1.5,0.1,2.1,0.2 C155,64.8,155.5,64.9,156,65.1z M88.6,97.6c0,0.3-0.2,0.5-0.4,0.5h-4c-0.3,0-0.4-0.2-0.4-0.5V65.5c0-0.2,0.2-0.5,0.4-0.5h4 c0.3,0,0.4,0.2,0.4,0.5V97.6z"/>
    </svg>
    <svg id="hiroad" viewBox="0 0 109.85 40.52">
      <path d="M29.06,31,.27,35.5a.31.31,0,0,0-.27.31v4.4a.32.32,0,0,0,.37.31L29.15,36a.3.3,0,0,0,.27-.31V31.3A.31.31,0,0,0,29.1,31h0" />
      <path d="M14.35,9.65a.31.31,0,0,0,.27-.31v-9A.32.32,0,0,1,14.94,0h4.45a.32.32,0,0,1,.32.32V26a.33.33,0,0,1-.32.32H14.94a.32.32,0,0,1-.32-.32v-11a.32.32,0,0,0-.32-.32h-.05l-8.89,1.4a.3.3,0,0,0-.27.31V26a.32.32,0,0,1-.32.32H.32A.32.32,0,0,1,0,26V.32A.32.32,0,0,1,.32,0H4.77a.32.32,0,0,1,.32.32V10.73a.32.32,0,0,0,.37.32l8.89-1.4Zm10.3,16.71a.32.32,0,0,1-.32-.32V9.93a.32.32,0,0,1,.32-.32H29.1a.32.32,0,0,1,.32.32V26a.32.32,0,0,1-.32.32Zm-.32-26A.32.32,0,0,1,24.65,0H29.1a.32.32,0,0,1,.32.32v4.4A.31.31,0,0,1,29.1,5H24.65a.32.32,0,0,1-.32-.31ZM42,21.74H39.1V13.27H42c2.32,0,5.46.6,5.46,4.24S44.29,21.74,42,21.74Zm5.3,3c2.86-.9,5.25-2.91,5.25-7.24,0-6.78-5.85-7.89-10.18-7.89h-8a.31.31,0,0,0-.32.31h0V35.66a.31.31,0,0,0,.32.31h4.45a.31.31,0,0,0,.32-.31V25.4h3.24l5.81,10.41a.32.32,0,0,0,.28.16h5.11a.32.32,0,0,0,.32-.31.34.34,0,0,0,0-.17ZM89.59,23.3c0-4.11-2.2-6.4-7.22-6.4A19.34,19.34,0,0,0,76,18.07l-.17.06a.31.31,0,0,0-.19.4L76.51,21a.32.32,0,0,0,.4.19l.21-.06a16.15,16.15,0,0,1,4.47-.82c2.42,0,3.52.8,3.52,3.23v1.06H82.76c-5.47,0-8.56,2.18-8.56,6.22,0,3.37,2.31,5.73,6.08,5.73a6.41,6.41,0,0,0,5.61-2.78,4.2,4.2,0,0,0,3.6,2.72l.28,0a.32.32,0,0,0,.34-.21l.81-2.55a.3.3,0,0,0-.17-.38l-.06,0s.06,0,0,0c-.69-.36-1-.94-1-2.23V23.3ZM78.82,30.48c0-2.18,1.46-3.24,4.41-3.24h1.88V31a4,4,0,0,1-3.63,2.28C79.74,33.29,78.82,32.27,78.82,30.48ZM63.38,20.32c-2.24,0-4.05,1.42-4.05,6.41s1.81,6.42,4.05,6.42,4.05-1.42,4.05-6.42-1.82-6.41-4.05-6.41m8.85,6.41c0,6.78-4,9.83-8.85,9.83s-8.85-3.05-8.85-9.83,4-9.82,8.85-9.82,8.85,3.05,8.85,9.82m33.14,3.93c-1.07,1.58-2.2,2.49-4,2.49-2.24,0-3.63-1.65-3.63-6.43,0-4.47,1.57-6.44,3.95-6.44a4.54,4.54,0,0,1,3.63,2Zm0-20.74V19a6.54,6.54,0,0,0-4.73-2.07C95.88,16.91,93,21,93,26.75c0,5.91,2.45,9.81,7.14,9.81a6.05,6.05,0,0,0,5.23-2.88l.28,2A.32.32,0,0,0,106,36h3.57a.32.32,0,0,0,.32-.31V10.53a.32.32,0,0,0-.27-.31l-3.85-.61a.32.32,0,0,0-.36.27v0Z" />
    </svg>
    <svg id="gopro" viewBox="0 0 279.93 38.98">
      <path fill="currentColor" d="M101.82,33.28c6.93,0,10.22-1.19,10.22-3.61v-12c0-2.42-3.29-3.61-10.22-3.61H86.93C80,14,76.71,15.22,76.71,17.64v12c0,2.42,3.28,3.61,10.22,3.61Zm0,5.7H86.93c-12.4,0-18.6-3.21-18.6-9.76V18.09c0-6.55,6.2-9.76,18.6-9.76h14.89c12.4,0,18.6,3.21,18.6,9.76V29.22C120.42,35.77,114.22,39,101.82,39Z" />
        <path d="M261.33,33.28H246.44c-6.93,0-10.22-1.19-10.22-3.61v-12c0-2.42,3.29-3.61,10.22-3.61h14.89c6.93,0,10.22,1.19,10.22,3.61v12C271.55,32.09,268.26,33.28,261.33,33.28Zm0,5.7c12.4,0,18.6-3.21,18.6-9.76V18.09c0-6.55-6.2-9.76-18.6-9.76H246.44c-12.4,0-18.6,3.21-18.6,9.76V29.22c0,6.55,6.2,9.76,18.6,9.76Z" fill="currentColor"/>
        <path d="M59.75,29.08v-7.7c0-1.67-1-2.42-3.1-2.42H38.49a3.12,3.12,0,0,0,0,6.23H50.91v4.14c0,1.24-1.61,2.44-4.31,3.17a21,21,0,0,1-5.85.63h-20q-11.94,0-12-4V9.63C8.83,7,13.59,5.77,23.1,5.77h5.61q3.22,0,3.23-2.89T28.71,0h-8A40.47,40.47,0,0,0,7.56,1.89C3.07,3.43,0,6.14,0,9.65V29.21c0,3.64,2.48,6.29,7.41,7.94A41.57,41.57,0,0,0,20.67,39H40.74a34.08,34.08,0,0,0,12.45-2q6.56-2.58,6.56-7.88" fill="currentColor"/>
        <path d="M180.82,15.19c0,3.14-3.92,4.06-11.6,4.06H138V5.77h31.23c7.68,0,11.6.92,11.6,4.06ZM182,1.64A44.79,44.79,0,0,0,169.22,0H131.68a2.52,2.52,0,0,0-2.52,2.52v33.9c0,1.71,1.06,2.56,3.1,2.56h2.63c2,0,3.1-.85,3.1-2.56V25h31.23a40.57,40.57,0,0,0,13.16-1.83c4.82-1.77,7.28-4.59,7.28-8.45V8.65C189.66,5.57,187.12,3.21,182,1.64Z" fill="currentColor"/>
        <path d="M218.88,8.33c-7.7,0-11-.14-15.52,1.73-4.29,1.76-6.12,4.86-6.12,7.71V36.54c0,1.63,1,2.44,3,2.44h2.5c1.94,0,3-.81,3-2.44V17.77c0-2.63,3.25-3.74,9.69-3.74h3.6c2.11,0,3.11-1,3.11-2.85S221,8.33,218.88,8.33" />
    </svg>
    <svg id="microsoft" viewBox="0 0 24 24">
      <path d="M11.4 24H0V12.6h11.4V24zM24 24H12.6V12.6H24V24zM11.4 11.4H0V0h11.4v11.4zm12.6 0H12.6V0H24v11.4z"/>
    </svg>
    <svg id="gage" viewBox="0 0 35.01 47.71">
      <path d="M19.73,26.6a17.32,17.32,0,0,0,.94-2.34c.12-.29.58-1.81.61-1.88s.36-1.18.47-1.43S23,17.08,23,16.87a4.45,4.45,0,0,0,0-.75h0c.38.12.37.52.33.86-.09.59-1.5,4.3-1.57,4.58S20.33,26.23,20,26.74s-1.59.25-2.36.53a11.93,11.93,0,0,0-2.44,1A9.35,9.35,0,0,0,13,29.89a.46.46,0,0,1-.15.16,10.45,10.45,0,0,0-.79,1c-.05.08-.14.14-.18.22a3,3,0,0,0-.27.54,9.11,9.11,0,0,0-.58,1.06,1.69,1.69,0,0,1-.17.29c0,.09-.11.18-.15.28l-.2.47a.82.82,0,0,0-.11.25,6.27,6.27,0,0,1-.52,1,1.71,1.71,0,0,1-.88.74,5.16,5.16,0,0,1-1.23-.31,20.28,20.28,0,0,0-3.55-1.09l0,0a3.26,3.26,0,0,1,.89,0c.26,0,2.63.79,2.72.84a4.71,4.71,0,0,0,.73.22.66.66,0,0,0,.5-.28,1.64,1.64,0,0,0,.12-.79A1.06,1.06,0,0,0,9.1,34a1.2,1.2,0,0,0-.18-.51,5.92,5.92,0,0,0-1.76-2c-.33-.26-.69-.47-1-.71a8.82,8.82,0,0,1-1.38-1.27s0,0-.06,0a6.36,6.36,0,0,0,.35.95c-.06.1-2.17,3-2.61,3.76a.52.52,0,0,0-.07.27c.29.55,4.48,2.56,5,2.78l0,0c-.16.24-1.24,1.56-1.61,2S4.41,41.49,4.23,41.8a4.06,4.06,0,0,0,.26.36,4.66,4.66,0,0,1-.43.59c0,.08-.23.45-.29.58l-.09.57c0,.2-.2.34-.05.52s.45.19.67.31a5,5,0,0,1,1.4.68c0,.07-.12,0-.19.05-.39-.05-3.92-.16-4.13-.09a.11.11,0,0,0,0,.11c0,.05.09,0,.14,0a15.85,15.85,0,0,0,1.68.14s0,0,0,0l0,0c-.69,0-1.36-.07-2,0-.35,0-.74,0-1.09,0,0,0-.11.11-.1.14A7.14,7.14,0,0,0,1.23,46c.55.06,1.1.15,1.63.25l0,0a10.4,10.4,0,0,0-1.37.1c0,.11.13.13.2.17.76,0,1.44.19,2.21.25,0,0,4.12.25,4.43.33.86.13,5.89.61,6.06.59.79,0,3.77-.27,4.44-.34.28-.06,1.59-.25,1.85-.27.05,0,4.81.24,5.07.25s2.33.09,2.95.14l1.37,0,2.06.06c.16,0,.37,0,.49-.09s.19-.07.21-.16-.16-.09-.24-.12c-.47,0-.88-.12-1.33-.11l-2.62-.34c-.31.05-5.8-.47-5.8-.47v0c.11,0,.19-.18.34-.15a14.82,14.82,0,0,0,1.76,0c.09-.06,0-.15,0-.24s-.25,0-.38-.06c-.41-.09-2.92-.29-3.29-.3-.12,0-1.94,0-1.94,0s-2.23-.12-2.79-.1l-2.88-.28a23.1,23.1,0,0,0-3.72,0c-.08.07,0,.12,0,.16a16.73,16.73,0,0,0,2.12.23l.09,0h-.38c-.28,0-2.1,0-2.24.07l-.21-.2c-.27-.21-.65-.09-1-.19a5.73,5.73,0,0,0-.75-.35c0-.08-.19-.8-.19-.8,0-.26-.31-.48-.1-.73a4.63,4.63,0,0,1,1.28.24c.11,0,.27.06.33-.09s.94-1.72,1.32-2.48c.11-.23,1.42-1.67,1.81-2.26l1.06-1.14c1.21.26,3,2.26,3,2.26.26.08.31-.25.45-.35a11,11,0,0,0,1.44-3.15c.11-.39.28-.74.4-1.13s.37-.83.56-1.24c.29-.65.93-1.73,1.05-2-.21.1-1,.56-1,.56.19-.3.57-.83.72-1.14a2.84,2.84,0,0,0-.72.28,5.74,5.74,0,0,0,.48-.76c-.11,0-.52.14-.68.17a4.43,4.43,0,0,0,.37-.66,2,2,0,0,0-.44,0,.84.84,0,0,1,.27-.43h0c.06,0,.59.87.89,1.22,0,0,.49.76.74,1.13.48.75,1.07,1.47,1.6,2.2.11.12.5,1,.54,1.09s.6,1.59.78,2,.83,2.32.91,2.7c.29.76.56,1.5.89,2.23L26,43.77c.22.39,1.42,2.41,1.42,2.41.4-.13.78-.29,1.18-.39.06.12-.06.19-.08.3a2.74,2.74,0,0,0,.08.64v.12l2.45.28.13-.06a3.21,3.21,0,0,1,.87-.24,5.69,5.69,0,0,0,1.24-.16,5.82,5.82,0,0,0,.94-.51,5.24,5.24,0,0,0,.74-.49c0-.24-.2-.4-.36-.52a1.38,1.38,0,0,0-1.43.27c-.24.14-.47,0-.7-.07a.74.74,0,0,1-.34-.08c.09-.12.25-.16.36-.27s-.13-.09-.19-.12a2.74,2.74,0,0,0-1.14,0,.82.82,0,0,1-.37-.19,4.85,4.85,0,0,1,.75-.53c0-.09,0-.14-.05-.22-.27-.68-.49-1.37-.76-2s-3.25-7.27-3.44-7.63c-.17-.65-.18-1.31-.34-2A8.75,8.75,0,0,0,25.22,30c-.26-.36-.86-1.22-.89-1.29-.19-.29-1.79-2.72-2.13-3.09l-.34-.52a.58.58,0,0,0-.22.31c-.67,1.64-1.36,1.43-1.36,1.43.64-.27,1.5-3.54,1.58-3.76.17,0,1.91,1.42,2.19,1.48.22-.12,1.1-.83,1.1-.83s.19.18.31.25a1.76,1.76,0,0,0,.89.4c.2.14.35.44.64.36s.21-.23.38-.23a1,1,0,0,0,.46,0c.14-.07.11-.21.09-.35a.22.22,0,0,1,0-.18c.07-.05.46.18.61.1A1.37,1.37,0,0,0,29,23.8a3.54,3.54,0,0,1-.11-.44,2.89,2.89,0,0,0-.21-.69.64.64,0,0,0-.24-.31c-.23-.07-1.4-.35-1.52-.35s.23.25.34.3c.29.16.68.09.94.32a3.13,3.13,0,0,1,.33.66c.08.05.37.29.33.4s-.08-.06-.08-.06c-.46-.16-.89-.64-1-.66s-.95.21-1.09.11a5.58,5.58,0,0,1-.69-.51c-.2-.16,0-.5,0-.61s-2.38-2.13-2.39-2.15l-.94,1.08c0-.3.79-2.46.81-2.56s.27-.83.31-.9.13.21.25.23c.26-.2.49-1.28.49-1.28a4.1,4.1,0,0,0,0-1.11c0-.27-.08-.52-.13-.76a0,0,0,0,0-.07,0,5.79,5.79,0,0,0,0,.72s-.38,1.91-.43,2c0-.09.08-.94-.12-1.18s-.43-.33-.64-.48c-.93-.25-1.83-.62-2.76-.88-.55-.14-1.59-.5-1.59-.5a9.48,9.48,0,0,1,1.75-.61,2.16,2.16,0,0,1-.47.7c0,.06-.05.14,0,.15a4.2,4.2,0,0,0,.72.17A2.49,2.49,0,0,0,21.58,13a4.06,4.06,0,0,0,0-.85h0c0-.06-.06-.16-.12-.09s-.06.47-.16.67-.15.22-.3,0a.28.28,0,0,0-.29-.1,3.8,3.8,0,0,0-.77.63,11.68,11.68,0,0,0-1.34.69,6.63,6.63,0,0,0-1.1,1c-.35.29-.33.75-.46,1.15-.21.11-.44.05-.65.16s.13.54.07.61-.43.12-.38.36a10.34,10.34,0,0,0,0,1.47c0,.24.14,1.35.14,1.35a9.4,9.4,0,0,0,.1,1.2,6.07,6.07,0,0,1,0,1.28c-.08,0-.17.13-.24.06a3.25,3.25,0,0,0-.31.4,4.31,4.31,0,0,0,0,.88,3.26,3.26,0,0,0,.32.94c.08.08.27.59.43.59.08.19,0,.43.06.61s0,.12,0,.17a.4.4,0,0,1-.24,0l-.13-.36c0-.05-.09,0-.14,0s-.17.4-.32.56A3.24,3.24,0,0,1,15,26c-.11,0-.54-.12-.57-.26a.45.45,0,0,0-.22-.25c-.12-.06-.31,0-.37-.1-.18-.3.18-1.17.17-1.3s.13-.09.2-.15,0-.49,0-.58c.27-.23,1.12-.57,1.07-.71s0-.13,0-.18a5.38,5.38,0,0,1-.9,0,7.45,7.45,0,0,1-.29-1.65c0-.08,0-.22.13-.22s.31,0,.33-.15a12.56,12.56,0,0,1,0-2.61,2.81,2.81,0,0,0,.12-1c0-.12-.16-.22-.09-.38a1.5,1.5,0,0,1,.52-.09c.08,0,.08-.12.1-.19s-.13-.23-.24-.32-.37-.26-.35-.47a3,3,0,0,0,.48-.45l.07-.24c0-.33-.09-.69.09-1S18.35,10,18.84,9.54c.42-.24,1-.17,1.4-.39,0-.11-.08-.2-.09-.33a5.34,5.34,0,0,1,.43-.5h.07a11,11,0,0,1,.79,1.27c.14.24,1.57,4,1.57,4a4,4,0,0,1-.08,1.2c-.06.2.15.29.24.43s0,.28.08.34a1.67,1.67,0,0,0,.59-.11.88.88,0,0,0,.06-.28,7.86,7.86,0,0,0-.12-1.49,18.87,18.87,0,0,0-.86-2.17c-.21-.3-.81-1.61-1-1.93-.05-.15.18-.09.26-.17s.28-.28.41-.07a.64.64,0,0,0,.19.35c.08,0,.15-.09.17-.15a1.49,1.49,0,0,0,.2-.76c-.07-.11-.15,0-.23,0L22.63,9l-.1-.35a.76.76,0,0,0-.18-.41c-.1,0-.12.11-.17.16-.15.29-.25.61-.38.9-.13-.07-.62-1.05-.95-1.35,0-.08-.1-.14-.08-.21s.51,0,.65,0a0,0,0,0,0,.07,0,6.39,6.39,0,0,0-.22-.78,2.25,2.25,0,0,1,.78.23l.38.67a1.7,1.7,0,0,0,.4,0c.14-.1.35-.12.44-.3a1.08,1.08,0,0,1,.47-.43,4.92,4.92,0,0,0,.94.06c.11-.1.24-.18.29-.31s-.07-.16-.15-.16a3,3,0,0,1-.56.13,6.48,6.48,0,0,1-1.6-.92c0-.14-.19-.65-.2-.75s.22-.26.12-.43-.16,0-.23,0-.24,0-.32-.11a1.86,1.86,0,0,1-.27-.8c.07-.15,0-.35.16-.47a4,4,0,0,1,.77.4.19.19,0,0,0,.22-.16c0-.13.06-.27.08-.4.18-.12.39-.12.58-.24a2.2,2.2,0,0,0-.13-.55L23,2.5c-.26.11-.56.16-.81.26s-.24.17-.28,0a.9.9,0,0,1,.28-.18,3.16,3.16,0,0,1,1.68-.39c.26,0,.54,0,.66.28a3.1,3.1,0,0,1,.25.69c-.05.05-.06,0-.1,0a1.17,1.17,0,0,0-.55.26.61.61,0,0,0,0,.3s.05,0,.09,0a.89.89,0,0,0,.43.12c.1-.06.1-.22.24-.22.11.22.63,1,.63,1l-.43-.07h0L25,4.58s0,.15-.08.16a.22.22,0,0,1-.2,0h-.2a1,1,0,0,0-.19.39,1.44,1.44,0,0,0,.05.34c0-.18.29-.3.41-.41s.16,0,.17,0c0,.36-.13.37-.33.41s-.21.08-.15.14a.63.63,0,0,0,.34.11s.09.07.06.12-.17.2-.27.28.29.25.35.17.15-.14.18-.24S25,5.85,25,5.74s.27-.14.15-.26,0-.39,0-.39c0-.2.17-.13.33-.24a.61.61,0,0,0,.16-.16.28.28,0,0,0,0-.18c-.08-.16-.59-1-.59-1-.14-.2,0-.3-.08-.42a6,6,0,0,0,1.3-.47.55.55,0,0,0,.22-.5c0-.19-.13-.28-.27-.38a4.83,4.83,0,0,0-.73-.33,8.75,8.75,0,0,0-1.29-.37l-1-.05-.63.05a7.55,7.55,0,0,0-.94.35c-.26.2-1.6,1-1.6,1S20,2.07,19.89,2A4.49,4.49,0,0,1,21.16.44c.25.12,1,.28,1.07.34a2.42,2.42,0,0,0,.76,0,.46.46,0,0,0,.15-.3c-.06,0-.1-.1-.16-.14a.37.37,0,0,1,.27,0c.19.18.3.39.49.55,0,0,.06.06.1,0a4.18,4.18,0,0,0-.2-.74c-.08-.06-.21,0-.31-.06A11.7,11.7,0,0,1,22.07,0c-.5,0-1.06,0-1.43.32h0a4.89,4.89,0,0,0-.73.79,7.28,7.28,0,0,0-.7,1.25c0,.14.17.58.18.69a3.9,3.9,0,0,0-.52.65,1.73,1.73,0,0,0-.24.69.59.59,0,0,0,.08.35c0,.12.12.2.19.29a2,2,0,0,0,.61.29,1.19,1.19,0,0,0,.53,0,2.26,2.26,0,0,1,.25.52s.53,0,.56.1c-.18.06-1.29,0-1.37.19a2.56,2.56,0,0,0,0,.62c0,.27-.38.29-.55.47a16.2,16.2,0,0,0-1.71,1.36c-.83.89-1.82,1.63-2.64,2.5a5.31,5.31,0,0,0-1,1.3s0,.14,0,.14c-.76-.19-1.46-.49-2.21-.67a.8.8,0,0,0-.63-.06.91.91,0,0,0-.49.51A57,57,0,0,0,7,22c-.09.43-.27.75.18,1.07.27.19,2.61,1,2.79,1.09s.09,0,.13.08-.24.22-.36.35a12.58,12.58,0,0,0-1.92,2.09.66.66,0,0,1-.21.2,8,8,0,0,0-1.25.69,7.07,7.07,0,0,0-1.45,1.19c0,.09,0,.2-.09.28h.06a10.34,10.34,0,0,1,2-1.38,21.94,21.94,0,0,1,3.55-1.24c.57-.2,2.89-1.13,2.89-1.13s.11,0,.14.07l0,.58c.07,0,.25.55.5.55a3.47,3.47,0,0,0,.37.26,1,1,0,0,0,.68.08.63.63,0,0,0,.54.14.35.35,0,0,0,.28-.21c.08-.05.09-.21.21-.18s.26.1.35,0,.27-.35.42-.13a11.81,11.81,0,0,0,1.53.45c.31,0,1.05.1,1.35-.31" />
    </svg>
    <svg id="wsdot" viewBox="0 0 183.2 183.4">
      <path d="M9.7,50.3a91.5,91.5,0,0,1,163.4,0H129.6c-5.5,0-9.9,1.6-12.6,5.3-.9-2.7-2.4-5.3-5.9-5.3Z" />
      <path d="M46.4,171.7a93.83,93.83,0,0,0,18.1,7.7l.2-.4c12.4-21,33.1-56.1,50.8-86.1,4.9-8.2,10.4-11.3,19-11.3h47.9a88.63,88.63,0,0,0-4.6-19.9H128.6a19.62,19.62,0,0,0-15.7,8.2,17.27,17.27,0,0,0-1.5-4.4c-1.3-2.2-2.6-3.8-6-3.8H5.1A94.44,94.44,0,0,0,.5,81.6H86.1c8.6,0,5.8,11.7,1.5,19.2C73.9,124.3,60,148.1,46.4,171.7" />
      <path d="M0,94.4A90.61,90.61,0,0,0,36.4,165h.2c13.5-23.6,24.5-42.8,38.2-66.4,1.3-2.2.7-4-1.6-4Z" />
      <path d="M183.2,94.5c-1.5,49.2-42.1,88.9-91.6,88.9a100.58,100.58,0,0,1-14.8-1.3v-.2c12.6-21.8,29.8-50.8,46.3-78.6,3.7-6.4,6.4-8.8,12.6-8.8Z" />
    </svg>
    <svg id="ox-" viewBox="0 0 501 501.05">
      <path d="M250.5.5C112.43.5.5,112.44.5,250.53s111.93,250,250,250,250-111.94,250-250S388.57.5,250.5.5Zm0,40c109.26,0,199,83.41,209.12,190H376.48v40.35h83.1c-10.24,106.44-99.95,189.67-209.1,189.67-114.32,0-207.27-91.28-210-204.92,0,46.27,43.21,78.4,84.08,78.92s84-37.63,84-84a84.2,84.2,0,0,0-84-84c-46.08,0-84.08,38.7-84.08,78.92C43.19,131.8,136.15,40.5,250.48,40.5Zm-42,124.28,64.05,85.75-64.05,82h40.22l43.83-61.6,44.07,61.6h39.93l-64-82,64-85.75H336.3l-43.82,65.75-43.83-65.75ZM124.5,206.65a43.88,43.88,0,1,1-43.87,43.88A43.86,43.86,0,0,1,124.5,206.65Z" fill="currentColor" strokeLinejoin="bevel"/>
    </svg>
    <svg id="edit" viewBox="0 0 24 24">
      <path fill="currentColor" d="M21.538,3.609l-1.084-1.084c-0.806-0.806-2.211-0.806-3.017,0l-1.402,1.402c-0.001,0.001-0.003,0.003-0.004,0.004  s-0.003,0.003-0.004,0.004L7.68,12.281c-0.092,0.092-0.151,0.211-0.169,0.339l-0.542,3.794c-0.027,0.187,0.036,0.375,0.169,0.509  C7.251,17.038,7.404,17.1,7.562,17.1c0.028,0,0.057-0.002,0.085-0.006l3.794-0.542c0.128-0.018,0.248-0.078,0.339-0.169l8.346-8.347  c0.001-0.001,0.003-0.003,0.004-0.004s0.003-0.003,0.004-0.004l1.402-1.402c0.403-0.403,0.625-0.938,0.625-1.508  S21.94,4.012,21.538,3.609z M11.074,15.392L8.27,15.793l0.401-2.805l7.785-7.784l2.403,2.403L11.074,15.392z M20.689,5.777  l-0.982,0.982l-2.403-2.403l0.982-0.982c0.353-0.354,0.967-0.354,1.319,0l1.084,1.084c0.177,0.176,0.273,0.411,0.273,0.66  S20.866,5.601,20.689,5.777z M21.038,12.5v5c0,2.537-2.063,4.6-4.6,4.6h-10c-2.537,0-4.6-2.063-4.6-4.6v-10  c0-2.537,2.063-4.6,4.6-4.6h5c0.332,0,0.6,0.269,0.6,0.6s-0.269,0.6-0.6,0.6h-5c-1.875,0-3.4,1.525-3.4,3.4v10  c0,1.875,1.525,3.4,3.4,3.4h10c1.875,0,3.4-1.525,3.4-3.4v-5c0-0.332,0.269-0.6,0.6-0.6S21.038,12.168,21.038,12.5z" />
    </svg>
    <svg id="delete" xmlns="http://www.w3.org/2000/svg" viewBox="0 0 89.52 89.52">
      <path fill="currentColor" d="M44.76,89.52A44.76,44.76,0,1,1,89.52,44.76,44.81,44.81,0,0,1,44.76,89.52Zm0-85.65A40.89,40.89,0,1,0,85.65,44.76,40.93,40.93,0,0,0,44.76,3.87Zm12.51,64a3.25,3.25,0,0,1-2.31-1L44.45,56.41,34.56,66.3a3.23,3.23,0,0,1-2.31,1,3.29,3.29,0,0,1-2.31-1L22.6,59a3.29,3.29,0,0,1,0-4.63l9.89-9.89L22.6,34.57a3.29,3.29,0,0,1,0-4.63l7.34-7.33a3.43,3.43,0,0,1,4.63,0l9.88,9.88,9.89-9.88a3.36,3.36,0,0,1,4.63,0l7.33,7.34a3.27,3.27,0,0,1,0,4.63l-9.88,9.88L66.92,55a3.27,3.27,0,0,1,0,4.63l-7.33,7.33A3.27,3.27,0,0,1,57.27,67.88ZM44.45,50.94,57.27,63.76l6.49-6.49L50.94,44.45l12.2-12.2-6.49-6.49L44.45,38l-12.2-12.2-6.49,6.49L38,44.45,25.76,56.65l6.49,6.49Z"/>
    </svg>
  </defs>
</svg>